<svg height="24" viewBox="0 0 24 24" width="24" xmlns="http://www.w3.org/2000/svg" xmlns:xlink="http://www.w3.org/1999/xlink"><defs><path id="a" d="m6.45591671 5.04196137c.39791553.38299044.4100147 1.01603981.02702426 1.41395534s-1.0160398.4100147-1.41395533.02702426l-4.47167969-4.30395507c-.39791553-.38299044-.41001471-1.01603981-.02702427-1.41395534s1.01603981-.41001471 1.41395534-.02702427z"/><path id="b" d="m4.58578644 6-4.29289322-4.29289322c-.39052429-.39052429-.39052429-1.02368927 0-1.41421356.39052429-.39052429 1.02368927-.39052429 1.41421356 0l5 5c.39052429.39052429.39052429 1.02368927 0 1.41421356l-5 5.00000002c-.39052429.3905243-1.02368927.3905243-1.41421356 0-.39052429-.3905243-.39052429-1.0236893 0-1.4142136z"/><mask id="c" fill="#fff"><use fill="#fff" fill-rule="evenodd" xlink:href="#a"/></mask><mask id="d" fill="#fff"><use fill="#fff" fill-rule="evenodd" xlink:href="#b"/></mask></defs><g fill="none" fill-rule="evenodd" transform="matrix(-1 0 0 1 16 6)"><g transform="translate(0 1)"><use fill="#d8d8d8" fill-rule="nonzero" xlink:href="#a"/><g fill="#ffa0a0" mask="url(#c)"><path d="m0 0h24v24h-24z" transform="translate(-8 -7)"/></g></g><g transform="translate(1)"><use fill="#000" fill-rule="nonzero" xlink:href="#b"/><g fill="#7600ff" mask="url(#d)"><path d="m0 0h24v24h-24z" transform="translate(-9 -6)"/></g></g></g></svg>