<svg height="24" viewBox="0 0 24 24" width="24" xmlns="http://www.w3.org/2000/svg" xmlns:xlink="http://www.w3.org/1999/xlink"><defs><path id="a" d="m0 .06867508 11.9393946-.06867508.0606054 3h-12zm0 5.97710831 11.9393946-.04578339.0606054 2h-12z"/><path id="b" d="m13 8h-10-1v8h12v-8zm-10-2v-1c0-2.76142375 2.23857625-5 5-5 2.7614237 0 5 2.23857625 5 5v1h1c1.1045695 0 2 .8954305 2 2v12c0 1.1045695-.8954305 2-2 2h-12c-1.1045695 0-2-.8954305-2-2v-12c0-1.1045695.8954305-2 2-2zm11 12h-12v2h12zm-9-12h6v-1c0-1.65685425-1.34314575-3-3-3s-3 1.34314575-3 3z"/><mask id="c" fill="#fff"><use fill="#fff" fill-rule="evenodd" xlink:href="#a"/></mask><mask id="d" fill="#fff"><use fill="#fff" fill-rule="evenodd" xlink:href="#b"/></mask></defs><g fill="none" fill-rule="evenodd" transform="translate(4 1)"><g transform="translate(2 13)"><use fill="#d8d8d8" xlink:href="#a"/><g fill="#ffa0a0" mask="url(#c)"><path d="m0 0h24v24h-24z" transform="translate(-6 -14)"/></g></g><use fill="#000" fill-rule="nonzero" xlink:href="#b"/><g fill="#7600ff" mask="url(#d)"><path d="m0 0h24v24h-24z" transform="translate(-4 -1)"/></g></g></svg>