<svg height="24" viewBox="4 4 14 14" width="24" xmlns="http://www.w3.org/2000/svg" xmlns:xlink="http://www.w3.org/1999/xlink"><defs><path id="a" d="m.29289322 1.70710678c-.39052429-.39052429-.39052429-1.02368927 0-1.41421356.39052429-.39052429 1.02368927-.39052429 1.41421356 0l8 8c.39052432.39052429.39052432 1.02368927 0 1.41421356-.39052429.39052432-1.02368927.39052432-1.41421356 0z"/><path id="b" d="m3.58578644 5-3.29289322-3.29289322c-.39052429-.39052429-.39052429-1.02368927 0-1.41421356.39052429-.39052429 1.02368927-.39052429 1.41421356 0l3.29289322 3.29289322 3.29289322-3.29289322c.39052429-.39052429 1.02368927-.39052429 1.41421356 0 .39052432.39052429.39052432 1.02368927 0 1.41421356l-3.29289322 3.29289322 3.29289322 3.29289322c.39052432.39052429.39052432 1.02368927 0 1.41421356-.39052429.39052432-1.02368927.39052432-1.41421356 0l-3.29289322-3.29289322-3.29289322 3.29289322c-.39052429.39052432-1.02368927.39052432-1.41421356 0-.39052429-.39052429-.39052429-1.02368927 0-1.41421356z"/><mask id="c" fill="#fff"><use fill="#fff" fill-rule="evenodd" xlink:href="#a"/></mask><mask id="d" fill="#fff"><use fill="#fff" fill-rule="evenodd" xlink:href="#b"/></mask></defs><g fill="none" fill-rule="evenodd"><g transform="translate(8 6)"><use fill="#d8d8d8" fill-rule="nonzero" xlink:href="#a"/><g fill="#ffa0a0" mask="url(#c)"><path d="m0 0h24v24h-24z" transform="translate(-8 -6)"/></g></g><g transform="matrix(0 -1 1 0 7 17)"><use fill="#000" fill-rule="nonzero" xlink:href="#b"/><g fill="#7600ff" mask="url(#d)"><path d="m0 0h24v24h-24z" transform="translate(-7 -7)"/></g></g></g></svg>
