<svg height="24" viewBox="0 0 24 24" width="24" xmlns="http://www.w3.org/2000/svg" xmlns:xlink="http://www.w3.org/1999/xlink"><defs><path id="a" d="m8 2c-.55228475 0-1-.44771525-1-1s.44771525-1 1-1 1 .44771525 1 1-.44771525 1-1 1zm-7 7c-.55228475 0-1-.44771525-1-1s.44771525-1 1-1 1 .44771525 1 1-.44771525 1-1 1zm6 7c-.55228475 0-1-.4477153-1-1s.44771525-1 1-1 1 .4477153 1 1-.44771525 1-1 1z"/><path id="b" d="m2.12406416 10.0076205c.4413868-1.72909254 2.00935322-3.0076205 3.87593584-3.0076205 1.86383943 0 3.42993972 1.27477279 3.87398251 3h9.12601749c.5522847 0 1 .4477153 1 1s-.4477153 1-1 1h-9.12601749c-.44404279 1.7252272-2.01014308 3-3.87398251 3-1.86658262 0-3.43454904-1.278528-3.87593584-3.0076205-.04064899.00503-.08205406.0076205-.12406416.0076205h-1c-.55228475 0-1-.4477153-1-1s.44771525-1 1-1h1c.0420101 0 .08341517.0025905.12406416.0076205zm6 7c.4413868-1.7290925 2.00935324-3.0076205 3.87593584-3.0076205s3.434549 1.278528 3.8759358 3.0076205c.040649-.00503.0820541-.0076205.1240642-.0076205h3c.5522847 0 1 .4477153 1 1s-.4477153 1-1 1h-3c-.0420101 0-.0834152-.0025905-.1240642-.0076205-.4413868 1.7290925-2.0093532 3.0076205-3.8759358 3.0076205s-3.43454904-1.278528-3.87593584-3.0076205c-.04064899.00503-.08205406.0076205-.12406416.0076205h-7c-.55228475 0-1-.4477153-1-1s.44771525-1 1-1h7c.0420101 0 .08341517.0025905.12406416.0076205zm1-14.00000003c.4413868-1.72909251 2.00935324-3.00762047 3.87593584-3.00762047 1.8638394 0 3.4299397 1.27477279 3.8739825 3h2.1260175c.5522847 0 1 .44771525 1 1s-.4477153 1-1 1h-2.1260175c-.4440428 1.72522721-2.0101431 3-3.8739825 3-1.8665826 0-3.43454904-1.27852796-3.87593584-3.00762047-.04064899.00502997-.08205406.00762047-.12406416.00762047h-8c-.55228475 0-1-.44771525-1-1s.44771525-1 1-1h8c.0420101 0 .08341517.0025905.12406416.00762047zm3.87593584 2.99237953c1.1045695 0 2-.8954305 2-2s-.8954305-2-2-2-2 .8954305-2 2 .8954305 2 2 2zm-1 14c1.1045695 0 2-.8954305 2-2s-.8954305-2-2-2-2 .8954305-2 2 .8954305 2 2 2zm-6-7c1.1045695 0 2-.8954305 2-2s-.8954305-2-2-2-2 .8954305-2 2 .8954305 2 2 2z"/><mask id="c" fill="#fff"><use fill="#fff" fill-rule="evenodd" xlink:href="#a"/></mask><mask id="d" fill="#fff"><use fill="#fff" fill-rule="evenodd" xlink:href="#b"/></mask></defs><g fill="none" fill-rule="evenodd" transform="translate(2 1)"><g transform="translate(5 3)"><use fill="#d8d8d8" xlink:href="#a"/><g fill="#ffa0a0" mask="url(#c)"><path d="m0 0h24v24h-24z" transform="translate(-7 -4)"/></g></g><use fill="#000" xlink:href="#b"/><g fill="#7600ff" mask="url(#d)"><path d="m0 0h24v24h-24z" transform="translate(-2 -1)"/></g></g></svg>