<svg height="24" viewBox="0 0 24 24" width="24" xmlns="http://www.w3.org/2000/svg" xmlns:xlink="http://www.w3.org/1999/xlink"><defs><path id="a" d="m7.64648437 1.19311523c.68408204 4.10823568-.68505859 6.75244141-4.10742187 7.93261719-3.42236328 1.18017578-4.34082031 3.82348638-2.75537109 7.92993168l2.21630859 2.2097168 9.5229492-9.71752934c.9820964-3.13167317.285319-5.7183431-2.090332-7.76000976-1.5748698-1.21289063-2.50358074-1.41113282-2.78613283-.59472657z"/><path id="b" d="m18.6707335 10.0469949c1.7736869-1.84224155 1.7721596-4.82545182-.0034127-6.66574134-1.7755724-1.84028951-4.6538726-1.84187251-6.4313283-.00353708l-1.2657856 1.31192175-1.22357666-1.26857566c-1.77241347-1.83662759-4.64576009-1.83631313-6.41779929.00070237-1.77203921 1.83701549-1.77173581 4.81509163.00067766 6.65171926l7.64553869 7.9265158zm-9.13518302 9.341475-7.64519014-7.9261545c-2.52010438-2.61140715-2.52053285-6.81712975-.00097075-9.42907795 2.48716213-2.57836021 6.50604438-2.65056711 9.07932731-.21593583 2.5758407-2.48042856 6.6325131-2.42143086 9.1378987.17527257 2.5226196 2.61456559 2.5247748 6.82428668.0048846 9.44157281l-7.6687928 7.9483114c-.2882389.2987448-.6462373.487995-1.0228593.5677504-.658911.1495549-1.3789577-.0378275-1.88429762-.5617389z"/><mask id="c" fill="#fff"><use fill="#fff" fill-rule="evenodd" xlink:href="#a"/></mask><mask id="d" fill="#fff"><use fill="#fff" fill-rule="evenodd" xlink:href="#b"/></mask></defs><g fill="none" fill-rule="evenodd" transform="translate(1 2)"><g transform="translate(8)"><use fill="#d8d8d8" xlink:href="#a"/><g fill="#ffa0a0" mask="url(#c)"><path d="m0 0h24v24h-24z" transform="translate(-9 -2)"/></g></g><use fill="#000" fill-rule="nonzero" xlink:href="#b"/><g fill="#7600ff" mask="url(#d)"><path d="m0 0h24v24h-24z" transform="translate(-1 -2)"/></g></g></svg>