<svg height="24" viewBox="0 0 24 24" width="24" xmlns="http://www.w3.org/2000/svg" xmlns:xlink="http://www.w3.org/1999/xlink"><defs><path id="a" d="m17.014 3-8.122 4.983-8.122-4.669 3.373-2.963 4.749 2.649 4.931-2.649z"/><path id="b" d="m1.46887113 8-.46114901-.26351372c-1.34362949-.76778828-1.34362949-2.70518428 0-3.47297256l7-4c.61486534-.35135163 1.36969042-.35135163 1.98455576 0l7.00000002 4c1.3436295.76778828 1.3436295 2.70518428 0 3.47297256l-.461149.26351372.461149.26351372c1.3436295.76778828 1.3436295 2.70518428 0 3.47297258l-.461149.2635137.461149.2635137c1.3436295.7677883 1.3436295 2.7051843 0 3.4729726l-7.00000002 4c-.61486534.3513516-1.36969042.3513516-1.98455576 0l-7-4c-1.34362949-.7677883-1.34362949-2.7051843 0-3.4729726l.46114901-.2635137-.46114901-.2635137c-1.34362949-.7677883-1.34362949-2.7051843 0-3.47297258zm13.04669327 1.15175111-4.52328652 2.58473519c-.61486534.3513516-1.36969042.3513516-1.98455576 0l-4.52328656-2.58473519-1.48443556.84824889 7 4 7-4zm-11.03112884 3.99999999-1.48443556.8482489 7 4 7-4-1.4844356-.8482489-4.52328652 2.5847352c-.61486534.3513516-1.36969042.3513516-1.98455576 0zm5.51556444-11.1517511-7 4 7 4 7-4z"/><mask id="c" fill="#fff"><use fill="#fff" fill-rule="evenodd" xlink:href="#a"/></mask><mask id="d" fill="#fff"><use fill="#fff" fill-rule="evenodd" xlink:href="#b"/></mask></defs><g fill="none" fill-rule="evenodd" transform="translate(3 2)"><g transform="translate(0 7)"><use fill="#d8d8d8" xlink:href="#a"/><g fill="#ffa0a0" mask="url(#c)"><path d="m0 0h24v24h-24z" transform="translate(-3 -9)"/></g></g><use fill="#000" fill-rule="nonzero" xlink:href="#b"/><g fill="#7600ff" mask="url(#d)"><path d="m0 0h24v24h-24z" transform="translate(-3 -2)"/></g></g></svg>