<svg height="24" viewBox="0 0 24 24" width="24" xmlns="http://www.w3.org/2000/svg" xmlns:xlink="http://www.w3.org/1999/xlink"><defs><path id="a" d="m6 0h4c0 1.1045695-.8954305 2-2 2s-2-.8954305-2-2zm10 13.4537699c-2.6880804 1.0308201-5.3736971 1.5462301-8.05685027 1.5462301-2.68315313 0-5.33086971-.51541-7.94314973-1.5462301.53457461-4.30251326 3.18229118-6.4537699 7.94314973-6.4537699 4.76085857 0 7.44647527 2.15125664 8.05685027 6.4537699z"/><path id="b" d="m9 10c-2.76142375 0-5-2.23857625-5-5s2.23857625-5 5-5c2.7614237 0 5 2.23857625 5 5s-2.2385763 5-5 5zm0-2c1.6568542 0 3-1.34314575 3-3s-1.3431458-3-3-3c-1.65685425 0-3 1.34314575-3 3s1.34314575 3 3 3zm-7.00024933 12.0223292c-.01233205.552147-.46993279.9897535-1.02207984.9774215-.55214705-.0123321-.98975356-.4699328-.9774215-1.0220799.14551036-6.5149808 3.2234358-8.9776708 8.99969539-8.9776708 6.04790308 0 9.14107318 2.4818866 8.99499418 9.0223292-.0123321.552147-.4699328.9897535-1.0220799.9774215-.552147-.0123321-.9897535-.4699328-.9774215-1.0220799.1219378-5.4595574-2.1150544-6.9776708-6.99549278-6.9776708-4.62231656 0-6.8776876 1.53731-7.00019405 7.0223292z"/><mask id="c" fill="#fff"><use fill="#fff" fill-rule="evenodd" xlink:href="#a"/></mask><mask id="d" fill="#fff"><use fill="#fff" fill-rule="evenodd" xlink:href="#b"/></mask></defs><g fill="none" fill-rule="evenodd" transform="translate(3 1)"><g transform="translate(1 5)"><use fill="#d8d8d8" xlink:href="#a"/><g fill="#ffa0a0" mask="url(#c)"><path d="m0 0h24v24h-24z" transform="translate(-4 -6)"/></g></g><use fill="#000" fill-rule="nonzero" xlink:href="#b"/><g fill="#7600ff" mask="url(#d)"><path d="m0 0h24v24h-24z" transform="translate(-3 -1)"/></g></g></svg>